<svg width="178" height="80" viewBox="0 0 178 80" fill="none" xmlns="http://www.w3.org/2000/svg">
<path fill-rule="evenodd" clip-rule="evenodd" d="M61.4124 0L53.389 7.54874V20.09C53.389 20.2569 53.4672 20.4186 53.6029 20.5178L65.8154 29.6003L62.028 32.4173L56.2634 36.8256L48.9599 31.6348C48.6051 31.3844 48.3965 30.9775 48.3965 30.5445V7.85654C48.3965 7.66351 48.4956 7.49136 48.6625 7.39224L61.4124 0ZM88.4721 31.8435L78.3567 39.0323L78.3776 39.0479L71.9087 43.644L68.8777 45.8611L68.8568 45.8454L53.9159 56.7903C53.7802 56.8895 53.6968 57.0512 53.6968 57.2233V71.4392C53.6968 71.5748 53.7489 71.7052 53.8376 71.8044L61.4072 80L48.5478 71.8096C48.3913 71.7105 48.3026 71.5435 48.3026 71.3609V48.2713C48.3026 47.7705 48.5373 47.3009 48.9338 46.9984L64.2243 35.3075L83.8291 20.7264C83.9648 20.6273 84.043 20.4656 84.043 20.2987V7.75742L76.0195 0.208673L88.7695 7.60091C88.9364 7.69482 89.0355 7.87219 89.0355 8.06521V30.7584C89.0355 31.1914 88.8269 31.5983 88.4721 31.8487V31.8435ZM81.4137 41.3694L74.0476 46.6071L71.9713 48.1304L83.5213 56.5869C83.657 56.686 83.7404 56.8477 83.7404 57.0199V71.2357C83.7404 71.3714 83.6883 71.5018 83.5996 71.6009L76.0248 79.7965L88.8842 71.6061C89.0355 71.507 89.1294 71.3401 89.1294 71.1575V48.0678C89.1294 47.567 88.8947 47.0975 88.4982 46.7949L81.4137 41.3798V41.3694ZM155.164 61.9341C141.512 61.9341 133.024 58.0946 130.963 49.0277L138.517 45.5637H138.976C139.519 52.4343 145.45 55.2149 155.529 55.2149C164.878 55.2149 169.385 53.1594 169.385 48.6782C169.385 45.7411 167.69 44.4108 162.791 43.5344C160.663 43.1536 157.725 42.9032 154.569 42.6267C150.401 42.2667 145.842 41.8702 142.247 41.1138C135.924 39.8148 132.2 36.7577 132.2 30.3097C132.2 21.775 139.947 17.2103 153.229 17.2103C164.685 17.2103 172.093 20.1317 175.165 26.3084L166.865 28.5099C164.653 25.2964 159.958 23.9609 152.921 23.9609C144.991 23.9609 140.849 25.8963 140.849 29.6211C140.849 32.3756 142.362 33.7059 147.386 34.5823C149.613 34.984 152.728 35.2709 156.046 35.5683C160.203 35.9491 164.679 36.356 168.112 37.0603C174.252 38.3332 178.008 41.4164 178.008 47.8904C178.008 57.3329 169.322 61.9289 155.164 61.9289V61.9341ZM39.7261 50.6867L44.6247 60.6299V42.491L32.0417 17.7372H21.9941L0 61.0681H8.8373L13.9498 50.6919H39.7313L39.7261 50.6867ZM17.2155 44.0613H36.4917L26.8719 24.4826L17.2207 44.0613H17.2155ZM92.6195 30.3045L104.493 45.0003V61.0681H112.996V45.0003L135.147 17.7372H125.282L108.943 38.3437L92.6351 17.7372H92.6247V30.3045H92.6195Z" fill="url(#paint0_linear_6001_7004)"/>
<defs>
<linearGradient id="paint0_linear_6001_7004" x1="-7.40711e-07" y1="40" x2="178.008" y2="40" gradientUnits="userSpaceOnUse">
<stop stop-color="#5E5E5E"/>
<stop offset="0.244603" stop-color="#BDBDBD"/>
<stop offset="0.5" stop-color="white"/>
<stop offset="0.749603" stop-color="#BDBDBD"/>
<stop offset="1" stop-color="#5E5E5E"/>
</linearGradient>
</defs>
</svg>
